<?xml version="1.0" encoding="utf-8"?>
<!-- Generator: Adobe Illustrator 21.0.0, SVG Export Plug-In . SVG Version: 6.00 Build 0)  -->
<svg version="1.1" id="Layer_1" xmlns="http://www.w3.org/2000/svg" xmlns:xlink="http://www.w3.org/1999/xlink" x="0px" y="0px"
	 viewBox="0 0 3600 1884" style="enable-background:new 0 0 3600 1884;" xml:space="preserve">
<style type="text/css">
	.st0{fill:#ECE6DA;}
	.st1{fill:#FFF8ED;}
	.st2{fill:#D9AB91;}
	.st3{fill:#2D334A;}
	.st4{fill:#DB957F;}
	.st5{fill:#FFFFFF;}
	.st6{fill:none;stroke:#88AEBC;stroke-width:5;stroke-linecap:round;stroke-linejoin:round;stroke-miterlimit:10;}
	.st7{fill:none;stroke:#D9AB91;stroke-width:5;stroke-linecap:round;stroke-linejoin:round;stroke-miterlimit:10;}
	.st8{fill:none;stroke:#B47B6A;stroke-width:5;stroke-linecap:round;stroke-linejoin:round;stroke-miterlimit:10;}
	.st9{fill:none;stroke:#747888;stroke-width:4.5243;stroke-linecap:round;stroke-linejoin:round;stroke-miterlimit:10;}
	.st10{fill:none;stroke:#9A4D36;stroke-width:5;stroke-linecap:round;stroke-linejoin:round;stroke-miterlimit:10;}
	.st11{fill:#685F6A;}
	.st12{fill:#AD6F5C;}
	.st13{fill:#3B3E54;}
	.st14{fill:none;stroke:#3B3E54;stroke-width:2;stroke-miterlimit:10;}
	.st15{fill:#CEC8C5;}
	.st16{fill:#DFDBD8;}
	.st17{fill:#A2C0CB;}
	.st18{fill:#9C9FAA;}
	.st19{fill:#C1AA93;}
	.st20{fill:#C99375;}
	.st21{fill:#383E56;}
	.st22{fill:#C7D9E0;}
	.st23{fill:#EBCCB9;}
	.st24{fill:#88AEBC;}
	.st25{fill:#515669;}
	.st26{fill:#767A89;}
	.st27{fill:#BCD2D9;}
	.st28{fill:none;stroke:#9BBBC7;stroke-width:5;stroke-linecap:round;stroke-linejoin:round;stroke-miterlimit:10;}
	.st29{fill:none;stroke:#747888;stroke-width:5;stroke-linecap:round;stroke-linejoin:round;stroke-miterlimit:10;}
	.st30{fill:none;stroke:#AD6F5C;stroke-width:5;stroke-linecap:round;stroke-linejoin:round;stroke-miterlimit:10;}
	.st31{fill:#FFFCF7;}
	.st32{opacity:0.32;fill:#88AEBC;}
	.st33{fill:none;stroke:#C7D9DF;stroke-width:19.2415;stroke-miterlimit:10;}
	.st34{fill:#A8C4CE;}
	.st35{fill:#B37968;}
	.st36{fill:#D0ABA1;}
	.st37{fill:#7F8391;}
	.st38{fill:#616677;}
	.st39{opacity:0.07;fill:#563A3D;}
	.st40{opacity:0.27;fill:#563A3D;}
	.st41{opacity:0.53;fill:#383E56;}
	.st42{fill:#563A3D;}
	.st43{fill:#7D818F;}
	.st44{fill:#999999;}
	.st45{fill:#989BA6;}
	.st46{fill:#A9ABB5;}
	.st47{fill:#5F6475;}
	.st48{fill:#838794;}
	.st49{fill:#BCBEC5;}
</style>
<g>
	<path class="st0" d="M2615.91,593.31c-71.58,0-140.82,9.93-206.46,28.44c-168.78-217.32-432.57-357.21-729.06-357.21
		c-439.77,0-807.61,307.68-900.12,719.49c-12.09-2.53-24.62-3.88-37.46-3.88c-100.37,0-181.73,81.36-181.73,181.73
		c0,12.47,1.26,24.64,3.65,36.41c-199.77,51.34-347.39,232.66-347.39,448.45c0,86.73,23.85,167.88,65.34,237.27h2872.92
		c135.09-136.92,218.49-324.96,218.49-532.5C3374.1,932.76,3034.65,593.31,2615.91,593.31z"/>
	<path class="st0" d="M3374.1,1351.5c0-418.74-339.45-758.19-758.19-758.19c-71.58,0-140.82,9.93-206.46,28.44
		c-168.78-217.32-432.57-357.21-729.06-357.21c-439.77,0-807.61,307.68-900.12,719.49c-12.09-2.53-24.62-3.88-37.46-3.88
		c-100.37,0-181.73,81.36-181.73,181.73c0,12.47,1.26,24.64,3.65,36.41c-144.63,37.17-261.91,142.48-315.64,279.66h3114.49
		C3370.49,1436.83,3374.1,1394.58,3374.1,1351.5z"/>
	<g>
		<path class="st1" d="M2851.6,714.81c42.23,0,77.85,28.33,88.89,67.01h-177.78C2773.75,743.13,2809.37,714.81,2851.6,714.81z"/>
		<path class="st1" d="M2418.32,683.1c62.21,0,114.68,41.73,130.95,98.72h-261.89C2303.64,724.83,2356.11,683.1,2418.32,683.1z"/>
		<path class="st1" d="M2824.71,781.82c-20.08-69.48-99.65-121.38-194.76-121.38c-95.11,0-174.68,51.9-194.76,121.38H2824.71z"/>
	</g>
	<g>
		<path class="st2" d="M2748.31,767.73c19.7,0,36.32,13.21,41.47,31.26h-82.94C2711.99,780.95,2728.61,767.73,2748.31,767.73z"/>
		<path class="st2" d="M2546.18,752.94c29.02,0,53.5,19.47,61.09,46.05h-122.18C2492.67,772.41,2517.15,752.94,2546.18,752.94z"/>
		<path class="st2" d="M2735.77,799c-9.37-32.41-46.49-56.62-90.86-56.62c-44.37,0-81.49,24.21-90.86,56.62H2735.77z"/>
	</g>
	<g>
		<path class="st3" d="M2237.14,921.93c0,0,162.89,20.81,247.95-50.11c0,0-15.42-50.04-47.17-61.29
			c-31.75-11.25-17.11-36.06-39.74-57.59c-22.63-21.53-25.71-69.84-25.71-69.84l-101.33,75.69L2237.14,921.93z"/>
		<polygon class="st4" points="1924.81,1017.31 1970.17,1015.87 1957.11,911 1909.04,914.86 		"/>
		<path class="st4" d="M1903.41,866.18c6.51,24.73,11.05,51.14,12.2,51.91l42.16,3.84c5.01-4.73,3.68-0.77,5.12-46.21
			c0.05-1.62,0.17-3.25,0.35-4.86l2.34-20.73c0,0-11.11-22.68-33.23-16.55l-5.02,1.97C1924.34,836.58,1905.39,867.6,1903.41,866.18
			L1903.41,866.18z"/>
		<path class="st4" d="M1921.4,748.97l3.01,14.48l0,0c1.16,4.46,4.95,7.02,8.26,5.6l0,0c3.17-1.36,4.68-5.86,3.37-10.04l-5.48-17.47
			c-0.85-2.7-3.24-4.12-5.24-3.09l0,0C1922.11,740.08,1920.47,744.51,1921.4,748.97z"/>
		<path class="st4" d="M1928.12,795.36l-1,46.28c0.17,4.01,5.91,5.14,9.34,4.95h0c3.43-0.19,6.08-3.6,5.91-7.61l-1.83-44.32
			c-0.17-4.01-3.08-7.11-6.51-6.91h0C1930.6,787.93,1927.96,791.34,1928.12,795.36z"/>
		<path class="st4" d="M1924.62,765.13l3.71,26.47c0.54,3.88,3.67,6.5,6.98,5.87l0,0c3.31-0.64,5.56-4.29,5.02-8.17l-3.71-26.47
			c-0.54-3.88-3.67-6.5-6.98-5.87l0,0C1926.32,757.6,1924.07,761.26,1924.62,765.13z"/>
		<path class="st4" d="M1949.11,761.08l-0.22,14.67l0,0c0.16,4.57,3.27,7.99,6.78,7.46l0,0c3.36-0.51,5.79-4.45,5.43-8.8
			l-1.53-18.16c-0.24-2.81-2.25-4.77-4.4-4.29l0,0C1951.73,752.71,1949.17,756.55,1949.11,761.08z"/>
		<path class="st4" d="M1947.84,798.32l-7.4,39.22c-0.5,4.56,5.07,8.19,8.49,8.63l0,0c3.42,0.44,6.59-2.9,7.09-7.46l4.21-38.79
			c0.5-4.56-1.88-8.61-5.3-9.05l0,0C1951.51,790.42,1948.34,793.76,1947.84,798.32z"/>
		<path class="st4" d="M1948.99,775.99l-0.71,19.47c-0.17,4.58,2.43,8.35,5.8,8.43l0,0c3.37,0.08,6.24-3.57,6.41-8.15l0.71-19.47
			c0.17-4.58-2.43-8.35-5.8-8.43l0,0C1952.02,767.76,1949.16,771.41,1948.99,775.99z"/>
		<path class="st4" d="M1975.97,788.29l-5.43,11.89l0,0c-1.49,3.81,0.05,7.95,3.36,9.05l0,0c3.17,1.05,6.74-1.12,7.96-4.83
			l5.13-15.51c0.79-2.4-0.29-4.88-2.38-5.42l0,0C1981.28,782.59,1977.64,784.62,1975.97,788.29z"/>
		<path class="st4" d="M1964.22,819.88l-15.56,33.06c-1.3,3.26,2.44,7.65,5.7,8.95h0c3.26,1.3,6.95-0.3,8.25-3.56l13.42-33.76
			c1.3-3.26-0.3-6.95-3.56-8.25l0,0C1969.21,815.03,1965.51,816.62,1964.22,819.88z"/>
		<path class="st4" d="M1970.24,801.19l-5.67,18.37c-1.03,3.33,0.84,6.85,4.16,7.88v0c3.33,1.03,6.85-0.84,7.88-4.16l5.67-18.37
			c1.03-3.33-0.84-6.85-4.16-7.88h0C1974.79,796,1971.26,797.86,1970.24,801.19z"/>
		<polygon class="st4" points="1912.23,830.34 1912.2,857.9 1930.08,852.22 1925.35,829.21 		"/>
		<path class="st4" d="M1914.79,934.52c9.55-5.73,21.42-13.46,22.78-30.43c1.08-13.56-1.39-23.29-6.93-30.1
			c-5.72-7.02-17.22-11.99-28.14-7.01c-2.11,0.96-4.24,1.28-5.58,0.49c-0.02-0.01-0.04-0.02-0.06-0.04
			c-7.03-4.21-2.99-8.15-18.67-19.39c-15.68-11.24-23.57-2.17-25.02,0.47c-1.45,2.64,7.27,6.03,11.02,8.31
			c3.75,2.28,8.92,13.68,13.06,18.39c2.42,2.76,5.81,10.72,8.22,16.86c2.26,5.77,4.98,11.35,8.12,16.69
			c4.59,7.81,6.74,15.73,12.46,21.18C1907.86,931.68,1912.77,933.25,1914.79,934.52z"/>
		<g>
			
				<rect x="1494.2" y="538.48" transform="matrix(0.9814 0.1922 -0.1922 0.9814 183.6948 -309.8718)" class="st5" width="389.52" height="506.73"/>
			<polyline class="st6" points="1599.78,588.84 1693.58,607.21 1699.2,607.29 1703.8,609.21 1750.82,618.42 			"/>
			<polyline class="st6" points="1664.83,642 1747.55,658.2 1756.06,660.89 1764.53,661.53 1840.51,676.41 			"/>
			<line class="st6" x1="1592.15" y1="627.77" x2="1648.08" y2="638.72"/>
			<polyline class="st7" points="1584.53,666.7 1687.24,686.81 1693.15,688.99 1698.56,689.03 1778.67,704.72 1783.65,704.68 
				1787.81,706.51 1832.88,715.34 			"/>
			<polyline class="st8" points="1576.9,705.63 1630.42,716.11 1635.4,716.07 1640.87,718.16 1688.76,727.53 1699.02,730.56 
				1705.74,730.86 1764.51,742.37 			"/>
			<polyline class="st7" points="1569.28,744.56 1638.04,758.02 1646.94,758.75 1654.14,761.18 1715.09,773.12 1721,775.29 
				1724.67,774.99 1817.63,793.2 			"/>
			<line class="st9" x1="1561.66" y1="783.48" x2="1749.26" y2="820.23"/>
			<line class="st9" x1="1685.04" y1="848.07" x2="1802.39" y2="871.06"/>
			<polyline class="st9" points="1554.03,822.41 1572.29,825.99 1579.49,828.42 1587.96,829.06 1620.17,835.37 1624.28,835.16 
				1628.01,836.9 1665.89,844.32 			"/>
			<polyline class="st10" points="1546.41,861.34 1595.57,870.97 1600.17,872.89 1604.71,872.76 1721.82,895.7 1728.6,898.05 
				1734.01,898.09 1794.76,909.99 			"/>
			<polyline class="st7" points="1614.3,915.06 1650.64,922.18 1656.49,922.31 1660.21,924.06 1707.23,933.27 1711.34,933.05 
				1714.2,934.63 1749.9,941.62 1753.19,943.29 1756.43,942.9 1787.14,948.92 			"/>
			<polyline class="st7" points="1538.78,900.27 1562.18,905.16 1572.47,905.85 1594.71,911.23 			"/>
		</g>
		<path class="st11" d="M2139.37,1724.9c0,0-65.04-7.35-64.7-19.86l64.7-283.49l38.34-232.57l33.54,194.74L2139.37,1724.9z"/>
		<path class="st11" d="M2212.47,915.61c41.8-40.07,71.32-0.23,72.6,0.52c14.99,8.75,16.43,42.63,4.33,59.99l-289.71,373.49
			c-4.07,6.46-14.9-0.1-21.49-3.95c-2.2-1.29-3.92-3.08-5.11-5.15c-11.67-13.59-13.23-37.22-6.59-54.27
			C2001.05,1197.46,2158.12,967.72,2212.47,915.61z"/>
		<g>
			<path class="st12" d="M2443.48,1762.28c8.71,2.82,4.53-176.36-16.22-304.58c4.67-111.14-25.12-376.39-50.54-456.74
				c-31.93-100.92-82.33-156.21-166.32-115.85c-26.43,12.7-51.51,87.03-62.67,166.1c-11.16,79.06-26.84,63.18,16.65,179.07
				c15.46,41.2-23.43,320.22-42.66,393.99c-5.53,21.2-13.57,93.27-24.11,115.64c15.41,11.02,29.89,19.01,46.79,25.15
				C2260.29,1807.09,2327.44,1724.74,2443.48,1762.28z"/>
		</g>
		<path class="st3" d="M2249.4,845.89c0,0,113.06-16.14,135.77-92.64c30.49-102.71-80.14-199.35-158.62-149.6
			c-53.17,33.71-60.12,67.53-56.28,79.98C2174.1,696.09,2249.4,845.89,2249.4,845.89z"/>
		<path class="st4" d="M2300.58,749.61l-85.72-6.05c-0.84,11.74-6.8,123.45-1.32,165.35c3.49,12.86,24.97,18.22,47.97,11.98
			c20.68-5.61,35.42-18.68,35.68-30.6l0.1-0.02C2294.01,865.14,2297.7,790.62,2300.58,749.61z"/>
		<path class="st4" d="M2286.49,763.49c-28.09,62.9-94.67,94.32-133.11,77.16s-34.17-76.42-6.09-139.32
			c28.09-62.9,73.54-80.99,111.98-63.83S2314.58,700.59,2286.49,763.49z"/>
		<path class="st3" d="M2212.09,619.21c0,0-3.87,92.13,71.08,141.06c38.61,25.2,67.74-38.18,67.74-38.18l-27.09-72.77
			c0,0-27.81-34.7-54.35-37.93C2267.2,611.12,2212.09,619.21,2212.09,619.21z"/>
		<path class="st3" d="M2170.42,662.93c0,0,79.68-9.68,96.48-32.8c16.8-23.11-21.73-28.62-21.73-28.62
			S2192.31,608.21,2170.42,662.93z"/>
		<path class="st3" d="M2344.67,650.21c0,0-50.12-61.17,3.99-108.65c54.11-47.48,120.22-9.66,126.41,38.24
			c6.87,53.18-24.74,78-48.45,87.48C2402.91,676.76,2365.77,670.2,2344.67,650.21z"/>
		<path class="st4" d="M2313.28,795.27c-10.13,13.79-36.77,21.37-46.76,14.03c-9.98-7.33-4.27-20.35,5.86-34.14
			c10.13-13.79,27.7-20.74,37.68-13.41C2320.05,769.09,2323.41,781.48,2313.28,795.27z"/>
		<path class="st11" d="M2330.65,897.77c0,0-31.3,49.19-99.19,62.69c0,0,73.56,654.17,52.52,732.88c0,0,139.81,1.95,169.67,11.69
			c0,0-18.68-433.14-30.81-514.03C2410.71,1110.11,2382.04,956.42,2330.65,897.77z"/>
		<path class="st11" d="M2372.83,965.49c-43.1-35.74-70.47,5.28-71.7,6.11c-14.41,9.66-14.31,42.72-1.58,58.67l303.03,340.82
			c4.31,5.96,14.71-1.25,21.05-5.5c2.12-1.42,3.74-3.3,4.82-5.41c10.92-14.11,11.4-37.21,4.07-53.28
			C2594.4,1223.24,2428.88,1011.97,2372.83,965.49z"/>
		<g>
			<path class="st4" d="M2180.67,1390.4c-2.94,12.04-7.66,21.52-25.54,28.23c-14.28,5.37-25.65,5.73-34.89,1.88
				c-9.54-3.97-17.58-12.31-16.75-22.39c0.21-2.57-0.06-4.95-1.37-6.15c-0.02-0.02-0.04-0.04-0.06-0.05
				c-6.95-6.25-9.83-0.69-27.33-14.06c-17.5-13.37-10.39-24.67-8.03-27.05c2.36-2.37,8.99,5.95,12.74,9.27
				c3.75,3.32,17.83,5.35,24.33,8.34c3.81,1.74,13.57,2.93,21.02,3.61c7.01,0.64,13.96,1.83,20.81,3.55
				c10.01,2.52,19.3,2.37,27.15,6.83C2175.24,1383.83,2178.62,1388.62,2180.67,1390.4z"/>
			<polygon class="st4" points="2293.08,1417.16 2287.33,1368.05 2169.21,1392.54 2177.96,1444.35 			"/>
			<path class="st4" d="M2120.69,1386.75c28.83,3.6,59.21,4.77,60.28,5.93l12.54,48.1c-4.49,6.36-10.52,15.86-64.02,24.63
				l-19.77,3.07l-13.54-19.55c-2.1-3.03-3.87-6.27-5.28-9.66l-1.85-4.46c-3.77-9.09-4.66-19.03-2.52-28.48l1.32-5.85
				C2088.47,1397.01,2122.63,1388.73,2120.69,1386.75L2120.69,1386.75z"/>
			<path class="st4" d="M2050.9,1411.42l56.79,1.41c4.5,0.11,8.33-3.42,8.57-7.89l0,0c0.24-4.47-3.22-8.18-7.72-8.29l-56.79-1.41
				c-4.5-0.11-8.33,3.42-8.57,7.89l0,0C2042.95,1407.59,2046.4,1411.3,2050.9,1411.42z"/>
			<path class="st4" d="M2016.04,1417.76l35.06-6.9c4.16-0.82,6.95-4.81,6.24-8.91l0,0c-0.71-4.1-4.66-6.77-8.81-5.95l-35.06,6.9
				c-4.16,0.82-6.95,4.81-6.24,8.91l0,0C2007.94,1415.91,2011.88,1418.58,2016.04,1417.76z"/>
			<path class="st4" d="M1996.06,1423.58l16.27-4.93l0,0c5-1.81,7.81-6.71,6.14-10.7l0,0c-1.6-3.82-6.71-5.31-11.4-3.34l-19.59,8.24
				c-3.03,1.27-4.57,4.36-3.37,6.75l0,0C1986.01,1423.43,1991.05,1425.1,1996.06,1423.58z"/>
			<path class="st4" d="M1995.67,1434.23l16.84-1.1l0,0c5.28-0.05,9.66,3.81,9.55,8.42l0,0c-0.1,4.41-4.29,7.8-9.35,7.57
				l-21.11-0.97c-3.27-0.15-5.81-2.66-5.57-5.5l0,0C1986.42,1438.11,1990.48,1434.57,1995.67,1434.23z"/>
			<path class="st4" d="M2042.35,1428.4l48.39-12.59c4.38-1.14,8.95,1.45,10.22,5.79l0,0c1.26,4.34-1.27,8.78-5.65,9.92
				l-48.39,12.59c-4.38,1.14-8.95-1.45-10.22-5.79l0,0C2035.45,1433.98,2037.97,1429.54,2042.35,1428.4z"/>
			<path class="st4" d="M2014.41,1432.82l30.02-4.26c4.4-0.62,8.56,2.39,9.29,6.74l0,0c0.74,4.34-2.23,8.37-6.63,8.99l-30.02,4.26
				c-4.4,0.62-8.56-2.39-9.29-6.74l0,0C2007.05,1437.47,2010.02,1433.44,2014.41,1432.82z"/>
			<path class="st4" d="M2017.13,1460.78l15.05-3.4l0,0c4.76-0.8,9.12,2.02,9.53,6.15l0,0c0.39,3.95-3.01,7.57-7.6,8.09l-19.13,2.16
				c-2.96,0.33-5.53-1.54-5.62-4.11l0,0C2009.22,1465.57,2012.48,1461.83,2017.13,1460.78z"/>
			<path class="st4" d="M2055.16,1451.34l38.83-13.14c4.56-1.54,9.39,0.29,10.77,4.11v0c1.38,3.81-1.2,8.16-5.76,9.7l-38.83,13.14
				c-4.56,1.54-9.39-0.29-10.77-4.11l0,0C2048.01,1457.23,2050.6,1452.89,2055.16,1451.34z"/>
			<path class="st4" d="M2032.46,1457.45l19.87-5c4.67-1.18,9.27,0.98,10.26,4.81l0,0c1,3.83-1.99,7.89-6.66,9.07l-19.87,5
				c-4.67,1.18-9.27-0.98-10.26-4.81l0,0C2024.8,1462.68,2027.78,1458.62,2032.46,1457.45z"/>
			<path class="st4" d="M2054.01,1476.89l14.14-4.01l0,0c4.49-1.01,8.94,1.39,9.7,5.24l0,0c0.73,3.68-2.21,7.27-6.56,8l-18.17,3.08
				c-2.81,0.48-5.44-1.14-5.76-3.54l0,0C2046.85,1481.82,2049.65,1478.13,2054.01,1476.89z"/>
			<path class="st4" d="M2086.84,1464.38l36.11-18.62c3.49-1.8,7.86-0.43,9.77,3.06l0,0c1.91,3.49,0.63,7.77-2.85,9.57l-36.11,18.62
				c-3.49,1.8-7.86,0.43-9.77-3.06v0C2082.08,1470.47,2083.36,1466.18,2086.84,1464.38z"/>
			<path class="st4" d="M2066.65,1473.13l19.88-8.32c3.6-1.51,7.82,0.19,9.44,3.78l0,0c1.62,3.59,0.01,7.72-3.59,9.23l-19.88,8.32
				c-3.6,1.51-7.82-0.19-9.44-3.78l0,0C2061.44,1478.76,2063.05,1474.63,2066.65,1473.13z"/>
		</g>
		<g>
			<path class="st11" d="M2229.89,1435.01c98.57,4.08,310.2-27.81,369.21-48.52c48.95-17.18,37.8-46.65,37.73-48.01
				c-0.83-15.89-24.58-34.16-43.34-31.62l-372.33,72.59L2229.89,1435.01z"/>
		</g>
		<g>
			<path class="st11" d="M1964.5,944.5c29.42,94.17,58.17,298.92,53.41,361.28c-3.95,51.73-35.29,48.57-36.62,48.86
				c-15.57,3.3-39.35-14.92-41.75-33.69l-28.91-375.26L1964.5,944.5z"/>
		</g>
		<path class="st4" d="M1902.2,811.91l17.87,50.29c1.66,3.62,9.07,0.64,12.69-1.03l0,0c3.62-1.66,5.21-5.95,3.55-9.57l-20.99-45.72
			c-1.66-3.62-5.95-5.21-9.57-3.55l0,0C1902.12,804.01,1900.53,808.29,1902.2,811.91z"/>
		<path class="st4" d="M1874.24,801.68l31.22,12.48c3.46,1.38,7.39-0.3,8.78-3.76l0,0c1.38-3.46-0.3-7.39-3.76-8.78l-31.22-12.48
			c-3.46-1.38-7.39,0.3-8.78,3.76l0,0C1869.09,796.37,1870.78,800.3,1874.24,801.68z"/>
		<path class="st4" d="M1866.64,808.94l12.72-7.73l0,0c3.85-2.62,5.16-7.39,2.87-10.41l0,0c-2.19-2.89-6.85-3.04-10.4-0.34
			l-14.82,11.26c-2.29,1.74-2.93,4.69-1.39,6.46l0,0C1858.08,811,1862.72,811.33,1866.64,808.94z"/>
	</g>
	<g>
		<path class="st13" d="M2882.89,1636.92h-220.48l-0.13-0.01c0,0,16.23-160.55,14.37-200.98s4.57-160.14,8.54-167.48
			c0,0,12.32,8.7,14.18,15.96l53.33,2.83l10.81-24.65l2.69,3.95c3.14,4.62,5.81,9.57,7.68,14.83c3.27,9.19,5.13,18.83,5.52,28.62
			c0.88,22.13,2,56.33,1.13,68.49c0,0,118.92,78.12,102.56,256.29L2882.89,1636.92z"/>
		<g>
			<path class="st13" d="M2731.41,1855.53c4.16,0,8.32-1.63,11.42-4.88c6.04-6.31,5.82-16.32-0.48-22.36c0,0-6-5.93-10.31-14.68
				c-4.96-10.08-5.52-19.08-1.72-27.5c4.37-9.69,14.77-10.84,41.19-11.48c26.96-0.65,60.52-1.46,92.88-23.87
				c19.62-13.58,31.05-31.15,33.98-52.22c5.98-42.99-27.32-84.01-28.74-85.73c-5.55-6.74-15.52-7.7-22.26-2.15
				c-6.73,5.55-7.7,15.5-2.17,22.24c0.51,0.63,25.94,32.37,21.83,61.39c-1.71,12.07-8.46,22.04-20.65,30.48
				c-24.58,17.02-51.71,17.68-75.64,18.25c-27.67,0.67-56.29,1.36-69.25,30.09c-18.64,41.31,17.44,76.54,18.98,78.02
				C2723.54,1854.07,2727.48,1855.53,2731.41,1855.53z"/>
		</g>
		<path class="st13" d="M2675,1602.82c0,0-27.44,7.85-31.65,34.1h44.56L2675,1602.82z"/>
		<path class="st14" d="M2768.86,1351.81c0,0,64.07-21.43,111.98-12.56"/>
		<path class="st14" d="M2768.86,1361.73c0,0,59.93-12.02,96.6-4.24"/>
		<path class="st14" d="M2693.45,1357.8c0,0-20.26-13.06-46.32-11.66"/>
		<path class="st14" d="M2697.41,1366.73c0,0-27.12-14.92-105.22,0"/>
		<path class="st14" d="M2687.91,1372.51c0,0-41.89-3.04-60.82,7.02"/>
		<path class="st14" d="M2760.18,1366.73c0,0,102.33,2.57,115.34,12.8"/>
	</g>
	<path class="st15" d="M249.1,1477.95c-20.49,52.3-31.75,109.22-31.75,168.78c0,86.73,23.85,167.88,65.34,237.27h2872.92
		c107.05-108.5,181.62-249.09,207.98-406.05H249.1z"/>
	<g>
		<path class="st16" d="M2849.04,1659.12H1172.85c-30.98,0-56.09-25.11-56.09-56.09c0-30.98,25.11-56.09,56.09-56.09h1676.19
			c30.98,0,56.09,25.11,56.09,56.09C2905.13,1634.01,2880.02,1659.12,2849.04,1659.12z"/>
	</g>
	<g>
		<path class="st16" d="M2430.25,1659.12H754.06c-30.98,0-56.09-25.11-56.09-56.09c0-30.98,25.11-56.09,56.09-56.09h1676.19
			c30.98,0,56.09,25.11,56.09,56.09C2486.34,1634.01,2461.23,1659.12,2430.25,1659.12z"/>
	</g>
	<g>
		<path class="st17" d="M2972.42,932.78c11.62,0,21.42,7.79,24.46,18.44h-48.92C2951,940.57,2960.8,932.78,2972.42,932.78z"/>
		<path class="st17" d="M2853.2,924.05c17.12,0,31.55,11.48,36.03,27.16h-72.06C2821.65,935.53,2836.09,924.05,2853.2,924.05z"/>
		<path class="st17" d="M2965.02,951.22c-5.52-19.12-27.42-33.4-53.59-33.4s-48.06,14.28-53.59,33.4H2965.02z"/>
	</g>
	<g>
		<path class="st5" d="M1814.95,355.49c25.63,0,47.25,17.19,53.95,40.67H1761C1767.7,372.68,1789.32,355.49,1814.95,355.49z"/>
		<path class="st5" d="M1551.99,336.25c37.76,0,69.6,25.32,79.47,59.91h-158.95C1482.39,361.57,1514.23,336.25,1551.99,336.25z"/>
		<path class="st5" d="M1798.63,396.16c-12.19-42.17-60.48-73.66-118.2-73.66c-57.73,0-106.02,31.5-118.2,73.66H1798.63z"/>
	</g>
	<g>
		<path class="st2" d="M1075.05,791.46c11.62,0,21.42,7.79,24.46,18.44h-48.92C1053.63,799.25,1063.43,791.46,1075.05,791.46z"/>
		<path class="st2" d="M955.83,782.73c17.12,0,31.55,11.48,36.03,27.16H919.8C924.28,794.22,938.72,782.73,955.83,782.73z"/>
		<path class="st2" d="M1067.65,809.9c-5.52-19.12-27.42-33.4-53.59-33.4s-48.06,14.28-53.59,33.4H1067.65z"/>
	</g>
	<g>
		<path class="st17" d="M1328.7,501.93c42.53,0,78.39,28.52,89.51,67.48h-179.01C1250.31,530.45,1286.17,501.93,1328.7,501.93z"/>
		<path class="st17" d="M892.42,470.01c62.64,0,115.47,42.01,131.85,99.4H760.57C776.95,512.02,829.78,470.01,892.42,470.01z"/>
		<path class="st17" d="M1301.62,569.41c-20.22-69.96-100.34-122.22-196.11-122.22c-95.77,0-175.89,52.25-196.11,122.22H1301.62z"/>
	</g>
	<g>
		<path class="st5" d="M1151.57,558.22c19.37,0,35.71,12.99,40.77,30.74h-81.55C1115.86,571.21,1132.2,558.22,1151.57,558.22z"/>
		<path class="st5" d="M952.83,543.67c28.54,0,52.6,19.14,60.06,45.28H892.76C900.22,562.81,924.29,543.67,952.83,543.67z"/>
		<path class="st5" d="M1139.23,588.96c-9.21-31.87-45.71-55.67-89.34-55.67c-43.63,0-80.13,23.8-89.34,55.67H1139.23z"/>
	</g>
	<g>
		<path class="st18" d="M2976.33,1656.46c32.93,0,60.7,22.08,69.31,52.25h-138.62C2915.64,1678.54,2943.41,1656.46,2976.33,1656.46z
			"/>
		<path class="st18" d="M2638.51,1631.74c48.51,0,89.41,32.53,102.1,76.97h-204.19C2549.1,1664.27,2590,1631.74,2638.51,1631.74z"/>
		<path class="st18" d="M2955.36,1708.71c-15.66-54.17-77.69-94.63-151.85-94.63s-136.2,40.46-151.85,94.63H2955.36z"/>
	</g>
	<g>
		<path class="st18" d="M1310.47,1645.26c19.03,0,35.07,12.76,40.05,30.19h-80.09C1275.4,1658.02,1291.45,1645.26,1310.47,1645.26z"
			/>
		<path class="st18" d="M1115.28,1630.97c28.03,0,51.67,18.8,58.99,44.47h-117.99C1063.61,1649.77,1087.25,1630.97,1115.28,1630.97z
			"/>
		<path class="st18" d="M1298.36,1675.45c-9.05-31.3-44.89-54.68-87.74-54.68c-42.85,0-78.7,23.38-87.74,54.68H1298.36z"/>
	</g>
	<g>
		<path class="st12" d="M2641.41,1690.76c13.05,0,24.06,8.75,27.47,20.71h-54.94C2617.35,1699.51,2628.35,1690.76,2641.41,1690.76z"
			/>
		<path class="st12" d="M2507.51,1680.96c19.23,0,35.44,12.89,40.47,30.51h-80.93C2472.07,1693.86,2488.29,1680.96,2507.51,1680.96z
			"/>
		<path class="st12" d="M2633.09,1711.47c-6.21-21.47-30.79-37.51-60.19-37.51s-53.98,16.04-60.19,37.51H2633.09z"/>
	</g>
	<g>
		<path class="st12" d="M2454.01,1606.55c2.99-1.32,6.49,0.04,7.81,3.03c0.59,1.34,0.64,2.78,0.25,4.08
			c5.44,4.35,10.54,9.05,15.27,13.87c-1.39-5.41-3.05-13.55-3.09-21.75c-1.53-0.51-2.86-1.63-3.56-3.23
			c-1.32-2.99,0.04-6.49,3.03-7.81c2.99-1.32,6.49,0.04,7.81,3.03c1.32,2.99-0.04,6.49-3.03,7.81c-0.34,0.15-0.7,0.26-1.05,0.35
			c0.1,12.27,4.06,24.76,4.7,26.69c10.11,11.07,18.26,22.4,24.15,31.47c10.58,16.3,16.33,29.03,16.38,29.16l-2.91,1.31
			c-0.06-0.12-5.71-12.63-16.15-28.73c-3.14-4.84-6.94-10.33-11.33-16.08c-2.27-0.33-10.85-1.25-22.04,1.32
			c0.14,2.4-1.19,4.74-3.52,5.77c-2.99,1.32-6.49-0.04-7.81-3.03c-1.32-2.99,0.04-6.49,3.03-7.81c2.64-1.16,5.66-0.25,7.25,2.03
			c8.86-2.08,16.15-2.08,20.37-1.78c-8.04-10.12-17.86-20.76-29.2-29.87c-0.45,0.41-0.98,0.75-1.56,1.01
			c-2.99,1.32-6.49-0.04-7.81-3.03S2451.01,1607.87,2454.01,1606.55z"/>
		<path class="st12" d="M2529.1,1642.76c-2.01-1.11-9.72-4.99-21.09-6.53c-0.71,2.29-2.78,4.02-5.32,4.16
			c-3.26,0.18-6.06-2.32-6.24-5.58c-0.18-3.26,2.32-6.06,5.58-6.24c2.88-0.16,5.38,1.76,6.07,4.45c9.03,1.17,15.85,3.75,19.69,5.51
			c-3.96-12.3-9.4-25.72-16.81-38.24c-0.57,0.22-1.18,0.36-1.82,0.4c-3.26,0.18-6.06-2.32-6.24-5.58c-0.18-3.26,2.32-6.06,5.58-6.24
			s6.06,2.32,6.24,5.58c0.08,1.46-0.38,2.83-1.2,3.91c3.56,5.99,6.68,12.18,9.41,18.36c0.6-5.55,1.92-13.76,4.77-21.45
			c-1.26-1.02-2.1-2.53-2.2-4.27c-0.18-3.26,2.32-6.06,5.58-6.24s6.06,2.32,6.24,5.58s-2.32,6.06-5.58,6.24
			c-0.38,0.02-0.75,0-1.11-0.05c-4.23,11.52-4.92,24.61-5,26.63c5.56,13.92,9.2,27.4,11.51,37.96c4.16,18.98,5.05,32.92,5.06,33.06
			l-3.19,0.2c-0.01-0.14-0.89-13.83-4.99-32.58C2532.81,1656.17,2531.19,1649.69,2529.1,1642.76z"/>
	</g>
	<path class="st2" d="M581.1,1286.33c-13.44,9.87-22.46,21.86-26.37,27.64c-0.27-0.41-0.54-0.82-0.81-1.23
		c-6.94-10.5-15.06-22.17-24.31-34.47c5.63-3.32,18.7-11.87,29.71-25.36c14.48-17.73,19.9-37.26,19.9-37.26s-18.05,9.21-32.53,26.94
		c-10.65,13.04-16.39,27.04-18.69,33.54c-7.71-10.18-16.18-20.77-25.39-31.5c4.69-4.78,14.96-16.29,22.05-31.92
		c9.46-20.84,9.71-41.11,9.71-41.11s-15.1,13.52-24.56,34.36c-6.61,14.56-8.72,28.83-9.39,36.11
		c-9.25-10.66-19.24-21.44-29.93-32.05c3.9-5.42,12.31-18.38,16.95-34.94c6.17-22.04,3.32-42.11,3.32-42.11s-12.86,15.67-19.03,37.7
		c-4.25,15.18-4.22,29.43-3.79,36.83c-7.25-7.11-14.81-14.13-22.69-20.98c1.56-6.54,4.42-21.66,2.46-38.66
		c-2.61-22.74-12.84-40.24-12.84-40.24s-5.98,19.36-3.37,42.1c1.59,13.82,5.98,25.69,9.19,32.89c-5.58-4.74-11.3-9.38-17.18-13.91
		c-4.42-6.52-12.19-16.54-23.12-25.2c-17.94-14.22-37.54-19.35-37.54-19.35s9.47,17.92,27.41,32.14
		c10.81,8.57,22.21,13.83,29.58,16.67c6.08,4.68,12,9.49,17.76,14.4c-7.43-0.35-21.6-0.22-36.66,4.16
		c-21.98,6.39-37.52,19.4-37.52,19.4s20.09,2.65,42.07-3.74c16.69-4.85,29.66-13.52,34.94-17.41c7.93,6.86,15.54,13.9,22.84,21.02
		c-6.7,1.57-21.27,5.75-35.41,14.94c-19.2,12.46-30.31,29.41-30.31,29.41s20-3.26,39.2-15.73c14.58-9.47,24.5-21.52,28.43-26.77
		c11.01,10.86,21.28,21.91,30.78,32.84c-6.9,1-21.64,3.9-36.39,11.72c-20.22,10.72-32.79,26.62-32.79,26.62s20.21-1.48,40.43-12.21
		c15.23-8.08,26.12-19.08,30.57-24.03c9.32,10.82,17.88,21.51,25.66,31.78c-7.02,0.78-21.71,3.17-36.58,10.38
		c-20.59,9.98-33.73,25.42-33.73,25.42s20.25-0.75,40.85-10.74c15.31-7.42,26.5-17.86,31.23-22.72
		c9.12,12.14,17.14,23.65,23.98,34.02c0.34,0.52,0.68,1.03,1.02,1.55c-4.5,0.9-21.56,4.81-38.04,15.51
		c-19.2,12.46-30.31,29.41-30.31,29.41s20-3.26,39.2-15.73c16.48-10.7,27-24.7,29.65-28.45c27.93,42.62,42.5,74.91,42.64,75.24
		l5.12-2.29c-0.15-0.33-14.55-32.26-42.13-74.57c6.62-1.96,20.88-6.98,34.43-16.92c18.45-13.54,28.58-31.1,28.58-31.1
		S599.55,1272.79,581.1,1286.33z"/>
	<path class="st2" d="M815.84,1256.99c-27.02,9.12-47.93,23.99-57.29,31.39c-0.23-0.81-0.45-1.61-0.68-2.42
		c-5.87-20.7-13.07-43.92-21.76-68.77c10.9-2.5,36.63-9.67,61.56-25.94c32.77-21.39,51.72-50.42,51.72-50.42
		s-34.19,5.66-66.97,27.06c-24.11,15.74-40.72,35.59-47.82,44.99c-7.29-20.58-15.62-42.23-25.08-64.49
		c10.12-5.36,32.81-18.81,52.47-40.6c26.21-29.06,37.11-61.97,37.11-61.97s-31.61,14.22-57.82,43.28
		c-18.31,20.3-29.14,42.47-34.01,53.99c-9.56-22.17-20.26-44.9-32.18-67.73c9.16-6.82,29.58-23.58,45.72-48.17
		c21.47-32.72,27.22-66.9,27.22-66.9s-29.07,18.87-50.54,51.59c-14.8,22.54-22.12,45.78-25.25,58.05
		c-8.14-15.34-16.83-30.7-26.11-45.95c5.94-9.85,18.41-33.01,24.03-61.74c7.51-38.41-0.09-72.23-0.09-72.23
		s-19.78,28.46-27.29,66.87c-4.56,23.34-3.55,44.97-2.05,58.36c-6.64-10.61-13.56-21.14-20.79-31.57
		c-3.82-12.91-11.31-33.28-24.63-53.05c-21.87-32.46-51.17-50.98-51.17-50.98s6.16,34.11,28.03,66.57
		c13.18,19.56,29.04,34.04,39.58,42.48c7.49,10.78,14.63,21.68,21.48,32.66c-11.93-4.42-35.1-11.54-61.91-12.21
		c-39.13-0.97-71.19,12.19-71.19,12.19s31.37,14.73,70.5,15.7c29.71,0.73,55.34-6.68,65.96-10.28c9.37,15.29,18.13,30.7,26.33,46.09
		c-11.73-0.91-37.64-1.63-65.44,6.01c-37.74,10.38-64.63,32.24-64.63,32.24s34.29,5.04,72.03-5.34
		c28.67-7.88,51.07-22.39,60.19-28.91c12.32,23.4,23.34,46.72,33.16,69.46c-11.76-1.94-37.28-4.84-65.37,0.27
		c-38.51,7-67.23,26.4-67.23,26.4s33.71,8.05,72.22,1.04c29-5.27,52.45-17.58,62.26-23.33c9.58,22.47,18.01,44.32,25.37,65.08
		c-11.84-2.37-37.02-6.07-64.99-2.02c-38.73,5.61-68.14,23.96-68.14,23.96s33.4,9.26,72.13,3.65c28.8-4.17,52.43-15.38,62.66-20.86
		c8.58,24.51,15.68,47.42,21.47,67.86c0.29,1.02,0.58,2.04,0.86,3.05c-7.8-0.87-37.64-3.32-70.03,5.58
		c-37.74,10.38-64.63,32.24-64.63,32.24s34.29,5.04,72.03-5.34c32.41-8.91,56.8-26.28,63.05-31.01
		c23.44,83.92,30.47,144.09,30.54,144.7l9.53-1.09c-0.07-0.61-7.01-60.12-30.04-143.35c11.81,0.23,37.65-0.55,64.88-9.75
		c37.08-12.52,62.68-35.88,62.68-35.88S852.92,1244.48,815.84,1256.99z"/>
	<g>
		<path class="st2" d="M797.69,1389.24c74.49,0,137.32,49.96,156.79,118.21H640.9C660.37,1439.2,723.2,1389.24,797.69,1389.24z"/>
		<path class="st2" d="M981.18,1425.88c51.41,0,94.76,34.48,108.2,81.57H872.98C886.42,1460.35,929.78,1425.88,981.18,1425.88z"/>
		<path class="st2" d="M747.96,1507.45c-21.06-72.87-104.52-127.31-204.28-127.31c-99.76,0-183.22,54.43-204.28,127.31H747.96z"/>
	</g>
	<g>
		<path class="st1" d="M776.19,1488.14c24.04,0,44.32,16.12,50.6,38.15h-101.2C731.87,1504.26,752.15,1488.14,776.19,1488.14z"/>
		<path class="st1" d="M529.54,1470.09c35.42,0,65.28,23.75,74.54,56.2H455C464.26,1493.84,494.13,1470.09,529.54,1470.09z"/>
		<path class="st1" d="M760.88,1526.28c-11.43-39.55-56.72-69.09-110.87-69.09s-99.44,29.54-110.87,69.09H760.88z"/>
	</g>
	<g>
		<path class="st19" d="M2768.86,1446.19c-31.62,0-58.29,21.21-66.55,50.17h133.11C2827.15,1467.4,2800.48,1446.19,2768.86,1446.19z
			"/>
		<path class="st19" d="M3093.27,1422.45c-46.58,0-85.86,31.24-98.04,73.91h196.08C3179.13,1453.7,3139.85,1422.45,3093.27,1422.45z
			"/>
		<path class="st19" d="M2789,1496.37c15.03-52.02,74.61-90.88,145.82-90.88c71.21,0,130.79,38.86,145.82,90.88H2789z"/>
	</g>
	<g>
		<path class="st19" d="M2876.86,1143.91c10.24,22.38,34.73,33.12,34.73,33.12s7.87-25.55-2.37-47.93
			c-10.24-22.38-34.73-33.12-34.73-33.12S2866.62,1121.53,2876.86,1143.91z"/>
		<path class="st19" d="M2828.63,1243.89c13.81,20.37,39.74,26.9,39.74,26.9s3.53-26.5-10.29-46.87
			c-13.81-20.37-39.74-26.9-39.74-26.9S2814.82,1223.52,2828.63,1243.89z"/>
		<path class="st19" d="M2972.92,1073.47c-16.52,18.24-16.73,44.98-16.73,44.98s26.58-2.84,43.11-21.09s16.73-44.98,16.73-44.98
			S2989.44,1055.23,2972.92,1073.47z"/>
		<path class="st19" d="M2954.45,1158.69c-24.59,0.97-43.83,19.53-43.83,19.53s20.64,16.99,45.23,16.03
			c24.59-0.97,43.83-19.53,43.83-19.53S2979.04,1157.72,2954.45,1158.69z"/>
		<path class="st19" d="M2912.39,1250.69c-24.59,0.97-43.83,19.53-43.83,19.53s20.64,16.99,45.23,16.03
			c24.59-0.97,43.83-19.53,43.83-19.53S2936.99,1249.72,2912.39,1250.69z"/>
		<g>
			<path class="st19" d="M2827.85,1466.12l5.01,0.07c0.01-0.58,1-58.96,18.45-132.2c10.24-42.97,24.05-82.56,41.06-117.69
				c21.23-43.84,47.52-80.79,78.14-109.85l-3.45-3.64c-31.08,29.48-57.73,66.95-79.23,111.36c-17.17,35.47-31.11,75.43-41.43,118.77
				C2828.85,1406.7,2827.86,1465.54,2827.85,1466.12z"/>
		</g>
	</g>
	<g>
		<path class="st19" d="M3037.16,1243.65c2.68,18.99,18.59,32.45,18.59,32.45s11.55-17.34,8.87-36.33s-18.59-32.45-18.59-32.45
			S3034.48,1224.66,3037.16,1243.65z"/>
		<path class="st19" d="M2978.94,1307.63c5.8,18.29,23.71,28.92,23.71,28.92s8.52-19.01,2.72-37.3s-23.71-28.92-23.71-28.92
			S2973.14,1289.34,2978.94,1307.63z"/>
		<path class="st19" d="M3124.56,1212.35c-16.39,9.96-22.48,29.88-22.48,29.88s20.49,3.78,36.88-6.18
			c16.39-9.96,22.48-29.88,22.48-29.88S3140.96,1202.39,3124.56,1212.35z"/>
		<path class="st19" d="M3091.85,1271.91c-18.59-4.74-37.08,4.86-37.08,4.86s11.64,17.28,30.23,22.02
			c18.59,4.74,37.08-4.86,37.08-4.86S3110.43,1276.65,3091.85,1271.91z"/>
		<path class="st19" d="M3040,1331.3c-18.59-4.74-37.08,4.86-37.08,4.86s11.64,17.28,30.23,22.02s37.08-4.86,37.08-4.86
			S3058.59,1336.04,3040,1331.3z"/>
		<g>
			<path class="st19" d="M2929.01,1473.48l3.73,1.16c0.14-0.43,13.84-43.83,43.13-94.66c17.19-29.82,36.3-56.34,56.81-78.81
				c25.59-28.03,53.44-49.81,82.76-64.71l-1.77-3.48c-29.76,15.13-57.99,37.2-83.91,65.6c-20.7,22.69-39.99,49.44-57.32,79.53
				C2942.95,1429.3,2929.15,1473.04,2929.01,1473.48z"/>
		</g>
	</g>
	<g>
		<path class="st20" d="M3284.12,1475.04c19.37,0,35.71,12.99,40.77,30.74h-81.55C3248.41,1488.04,3264.75,1475.04,3284.12,1475.04z
			"/>
		<path class="st20" d="M3085.38,1460.5c28.54,0,52.6,19.14,60.06,45.28h-120.13C3032.77,1479.64,3056.84,1460.5,3085.38,1460.5z"/>
		<path class="st20" d="M3271.78,1505.78c-9.21-31.87-45.71-55.67-89.34-55.67c-43.63,0-80.13,23.8-89.34,55.67H3271.78z"/>
	</g>
	<g>
		
			<rect x="1021.18" y="1532.92" transform="matrix(-1 -1.224647e-16 1.224647e-16 -1 2746.1584 3109.3447)" class="st21" width="703.79" height="43.51"/>
		<polygon class="st21" points="1021.18,1537.17 1610.09,1537.17 1516.79,1142.56 927.88,1142.56 		"/>
		<polygon class="st22" points="1598.75,1528.2 1509.69,1151.53 939.22,1151.53 1028.28,1528.2 		"/>
		<path class="st23" d="M1041.5,1559.06h41.48c1.02,0,1.85-0.83,1.85-1.85v-7.71c0-1.02-0.83-1.85-1.85-1.85h-41.48
			c-1.02,0-1.85,0.83-1.85,1.85v7.71C1039.65,1558.23,1040.48,1559.06,1041.5,1559.06z"/>
		<g>
			<polygon class="st24" points="1018.68,1192.13 1456.91,1192.13 1463.15,1218.51 1024.92,1218.51 			"/>
			<polygon class="st25" points="1463.15,1218.51 1524.25,1476.91 1086.01,1476.91 1024.92,1218.51 			"/>
		</g>
		<circle class="st23" cx="1042.66" cy="1205.32" r="5.79"/>
		<circle class="st26" cx="1064.51" cy="1205.32" r="5.79"/>
		<circle class="st27" cx="1085.85" cy="1205.32" r="5.79"/>
	</g>
	<g>
		
			<rect x="1112.35" y="875.19" transform="matrix(0.9934 -0.1145 0.1145 0.9934 -120.6714 157.1572)" class="st1" width="389.52" height="506.73"/>
		<polyline class="st28" points="1160.55,962.17 1207.54,956.75 1213.48,954.05 1221.64,955.12 1345.92,940.79 1353.2,941.97 
			1359.99,939.17 1411.96,933.18 		"/>
		<polyline class="st7" points="1234.11,993.62 1276.42,988.74 1286.77,985.53 1298.46,986.2 1347.82,980.51 1354.75,978.7 
			1361.04,978.98 1416.5,972.59 		"/>
		<line class="st7" x1="1165.09" y1="1001.58" x2="1215.6" y2="995.75"/>
		<line class="st7" x1="1337.38" y1="1021.64" x2="1399.08" y2="1014.53"/>
		<polyline class="st7" points="1169.64,1040.98 1260.69,1030.48 1271.5,1031.25 1283.61,1027.84 1317.1,1023.98 		"/>
		<polyline class="st29" points="1243.2,1072.43 1321.65,1063.39 1334.17,1059.93 1341.92,1061.05 1425.59,1051.4 		"/>
		<line class="st29" x1="1174.18" y1="1080.39" x2="1224.69" y2="1074.57"/>
		<polyline class="st29" points="1178.72,1119.8 1252.46,1111.3 1261.2,1112.3 1275.07,1108.69 1430.13,1090.81 		"/>
		<polyline class="st30" points="1183.27,1159.21 1233.78,1153.38 1252.06,1149.26 1263.75,1149.93 1346.6,1140.37 1360.48,1136.76 
			1373.93,1137.22 1434.68,1130.22 		"/>
		<polyline class="st30" points="1187.81,1198.61 1374.06,1177.14 1391.58,1174.11 1402.27,1173.89 1439.22,1169.63 		"/>
		<polyline class="st7" points="1192.36,1238.02 1261.38,1230.06 1266.2,1230.51 1274.6,1228.54 1339.82,1221.02 		"/>
		<line class="st7" x1="1344.37" y1="1260.43" x2="1448.31" y2="1248.44"/>
		<polyline class="st7" points="1196.9,1277.43 1243.01,1272.11 1252.47,1269.01 1259.75,1270.18 1322.6,1262.94 		"/>
	</g>
	<g>
		
			<rect x="1293.97" y="687.78" transform="matrix(0.9979 0.0647 -0.0647 0.9979 63.9857 -94.3139)" class="st31" width="389.52" height="506.73"/>
		<polyline class="st8" points="1485.25,758.46 1518.01,760.58 1524.72,760.01 1529.97,761.35 1626.78,767.63 		"/>
		<polyline class="st8" points="1374.24,751.26 1413.09,753.78 1417.46,755.06 1422.83,754.41 1466.66,757.25 		"/>
		<polyline class="st10" points="1371.67,790.85 1515.89,800.19 1520.25,801.48 1523.86,800.71 1573,803.89 		"/>
		<polyline class="st7" points="1495.38,838.62 1561.14,842.88 1570.37,844.48 1576.63,843.88 1621.65,846.8 		"/>
		<polyline class="st7" points="1369.1,830.43 1438.51,834.93 1445.21,834.36 1449.59,835.65 1480.12,837.63 		"/>
		<polyline class="st7" points="1366.54,870.02 1439.93,874.77 1450.62,874.46 1457.19,875.89 1551.05,881.98 1556.01,881.3 
			1561.23,882.64 1619.08,886.39 		"/>
		<polyline class="st9" points="1363.97,909.6 1442.67,914.7 1447.48,916.02 1451.53,915.28 1534.76,920.67 1543.23,920.22 
			1548.04,921.53 1616.52,925.97 		"/>
		<polyline class="st9" points="1430.81,953.69 1550.82,961.47 1557.49,960.9 1562.74,962.24 1613.95,965.56 		"/>
		<line class="st9" x1="1361.41" y1="949.19" x2="1407.62" y2="952.18"/>
		<polyline class="st9" points="1536.27,1000.27 1575.67,1002.83 1585.34,1004.46 1591.16,1003.83 1611.39,1005.14 		"/>
		<polyline class="st9" points="1358.84,988.78 1422.49,992.9 1431.72,994.5 1519.82,999.21 		"/>
		<polyline class="st28" points="1356.28,1028.36 1411.79,1031.96 1419.86,1033.48 1425.68,1032.86 1545.68,1040.64 
			1555.46,1040.27 1561.59,1041.67 1608.82,1044.73 		"/>
		<polyline class="st28" points="1464.73,1075.14 1505.01,1077.75 1511.59,1079.18 1516.97,1078.53 1564.78,1081.63 		"/>
		<polyline class="st28" points="1353.71,1067.95 1381.06,1069.72 1389.53,1069.27 1396.55,1070.72 1446.14,1073.94 		"/>
	</g>
	<g>
		<g>
			<path class="st4" d="M2180.67,1390.4c-2.94,12.04-7.66,21.52-25.54,28.23c-14.28,5.37-25.65,5.73-34.89,1.88
				c-9.54-3.97-17.58-12.31-16.75-22.39c0.21-2.57-0.06-4.95-1.37-6.15c-0.02-0.02-0.04-0.04-0.06-0.05
				c-6.95-6.25-9.83-0.69-27.33-14.06c-17.5-13.37-10.39-24.67-8.03-27.05c2.36-2.37,8.99,5.95,12.74,9.27
				c3.75,3.32,17.83,5.35,24.33,8.34c3.81,1.74,13.57,2.93,21.02,3.61c7.01,0.64,13.96,1.83,20.81,3.55
				c10.01,2.52,19.3,2.37,27.15,6.83C2175.24,1383.83,2178.62,1388.62,2180.67,1390.4z"/>
			<polygon class="st4" points="2293.08,1417.16 2287.33,1368.05 2169.21,1392.54 2177.96,1444.35 			"/>
			<path class="st4" d="M2120.69,1386.75c28.83,3.6,59.21,4.77,60.28,5.93l12.54,48.1c-4.49,6.36-10.52,15.86-64.02,24.63
				l-19.77,3.07l-13.54-19.55c-2.1-3.03-3.87-6.27-5.28-9.66l-1.85-4.46c-3.77-9.09-4.66-19.03-2.52-28.48l1.32-5.85
				C2088.47,1397.01,2122.63,1388.73,2120.69,1386.75L2120.69,1386.75z"/>
			<path class="st4" d="M2050.9,1411.42l56.79,1.41c4.5,0.11,8.33-3.42,8.57-7.89l0,0c0.24-4.47-3.22-8.18-7.72-8.29l-56.79-1.41
				c-4.5-0.11-8.33,3.42-8.57,7.89l0,0C2042.95,1407.59,2046.4,1411.3,2050.9,1411.42z"/>
			<path class="st4" d="M2016.04,1417.76l35.06-6.9c4.16-0.82,6.95-4.81,6.24-8.91l0,0c-0.71-4.1-4.66-6.77-8.81-5.95l-35.06,6.9
				c-4.16,0.82-6.95,4.81-6.24,8.91l0,0C2007.94,1415.91,2011.88,1418.58,2016.04,1417.76z"/>
			<path class="st4" d="M1996.06,1423.58l16.27-4.93l0,0c5-1.81,7.81-6.71,6.14-10.7l0,0c-1.6-3.82-6.71-5.31-11.4-3.34l-19.59,8.24
				c-3.03,1.27-4.57,4.36-3.37,6.75l0,0C1986.01,1423.43,1991.05,1425.1,1996.06,1423.58z"/>
			<path class="st4" d="M1995.67,1434.23l16.84-1.1l0,0c5.28-0.05,9.66,3.81,9.55,8.42l0,0c-0.1,4.41-4.29,7.8-9.35,7.57
				l-21.11-0.97c-3.27-0.15-5.81-2.66-5.57-5.5l0,0C1986.42,1438.11,1990.48,1434.57,1995.67,1434.23z"/>
			<path class="st4" d="M2042.35,1428.4l48.39-12.59c4.38-1.14,8.95,1.45,10.22,5.79l0,0c1.26,4.34-1.27,8.78-5.65,9.92
				l-48.39,12.59c-4.38,1.14-8.95-1.45-10.22-5.79l0,0C2035.45,1433.98,2037.97,1429.54,2042.35,1428.4z"/>
			<path class="st4" d="M2014.41,1432.82l30.02-4.26c4.4-0.62,8.56,2.39,9.29,6.74l0,0c0.74,4.34-2.23,8.37-6.63,8.99l-30.02,4.26
				c-4.4,0.62-8.56-2.39-9.29-6.74l0,0C2007.05,1437.47,2010.02,1433.44,2014.41,1432.82z"/>
			<path class="st4" d="M2017.13,1460.78l15.05-3.4l0,0c4.76-0.8,9.12,2.02,9.53,6.15l0,0c0.39,3.95-3.01,7.57-7.6,8.09l-19.13,2.16
				c-2.96,0.33-5.53-1.54-5.62-4.11l0,0C2009.22,1465.57,2012.48,1461.83,2017.13,1460.78z"/>
			<path class="st4" d="M2055.16,1451.34l38.83-13.14c4.56-1.54,9.39,0.29,10.77,4.11v0c1.38,3.81-1.2,8.16-5.76,9.7l-38.83,13.14
				c-4.56,1.54-9.39-0.29-10.77-4.11l0,0C2048.01,1457.23,2050.6,1452.89,2055.16,1451.34z"/>
			<path class="st4" d="M2032.46,1457.45l19.87-5c4.67-1.18,9.27,0.98,10.26,4.81l0,0c1,3.83-1.99,7.89-6.66,9.07l-19.87,5
				c-4.67,1.18-9.27-0.98-10.26-4.81l0,0C2024.8,1462.68,2027.78,1458.62,2032.46,1457.45z"/>
			<path class="st4" d="M2054.01,1476.89l14.14-4.01l0,0c4.49-1.01,8.94,1.39,9.7,5.24l0,0c0.73,3.68-2.21,7.27-6.56,8l-18.17,3.08
				c-2.81,0.48-5.44-1.14-5.76-3.54l0,0C2046.85,1481.82,2049.65,1478.13,2054.01,1476.89z"/>
			<path class="st4" d="M2086.84,1464.38l36.11-18.62c3.49-1.8,7.86-0.43,9.77,3.06l0,0c1.91,3.49,0.63,7.77-2.85,9.57l-36.11,18.62
				c-3.49,1.8-7.86,0.43-9.77-3.06v0C2082.08,1470.47,2083.36,1466.18,2086.84,1464.38z"/>
			<path class="st4" d="M2066.65,1473.13l19.88-8.32c3.6-1.51,7.82,0.19,9.44,3.78l0,0c1.62,3.59,0.01,7.72-3.59,9.23l-19.88,8.32
				c-3.6,1.51-7.82-0.19-9.44-3.78l0,0C2061.44,1478.76,2063.05,1474.63,2066.65,1473.13z"/>
		</g>
		<g>
			<path class="st11" d="M2229.89,1435.01c98.57,4.08,310.2-27.81,369.21-48.52c48.95-17.18,37.8-46.65,37.73-48.01
				c-0.83-15.89-24.58-34.16-43.34-31.62l-372.33,72.59L2229.89,1435.01z"/>
		</g>
	</g>
	<path class="st4" d="M1903.41,866.18c6.51,24.73,11.05,51.14,12.2,51.91l42.16,3.84c5.01-4.73,3.68-0.77,5.12-46.21
		c0.05-1.62,0.17-3.25,0.35-4.86l2.34-20.73c0,0-11.11-22.68-33.23-16.55l-5.02,1.97C1924.34,836.58,1905.39,867.6,1903.41,866.18
		L1903.41,866.18z"/>
	<path class="st4" d="M1921.4,748.97l3.01,14.48l0,0c1.16,4.46,4.95,7.02,8.26,5.6l0,0c3.17-1.36,4.68-5.86,3.37-10.04l-5.48-17.47
		c-0.85-2.7-3.24-4.12-5.24-3.09l0,0C1922.11,740.08,1920.47,744.51,1921.4,748.97z"/>
	<path class="st4" d="M1928.12,795.36l-1,46.28c0.17,4.01,5.91,5.14,9.34,4.95h0c3.43-0.19,6.08-3.6,5.91-7.61l-1.83-44.32
		c-0.17-4.01-3.08-7.11-6.51-6.91h0C1930.6,787.93,1927.96,791.34,1928.12,795.36z"/>
	<path class="st4" d="M1924.62,765.13l3.71,26.47c0.54,3.88,3.67,6.5,6.98,5.87l0,0c3.31-0.64,5.56-4.29,5.02-8.17l-3.71-26.47
		c-0.54-3.88-3.67-6.5-6.98-5.87l0,0C1926.32,757.6,1924.07,761.26,1924.62,765.13z"/>
	<path class="st4" d="M1949.11,761.08l-0.22,14.67l0,0c0.16,4.57,3.27,7.99,6.78,7.46l0,0c3.36-0.51,5.79-4.45,5.43-8.8l-1.53-18.16
		c-0.24-2.81-2.25-4.77-4.4-4.29l0,0C1951.73,752.71,1949.17,756.55,1949.11,761.08z"/>
	<path class="st4" d="M1947.84,798.32l-7.4,39.22c-0.5,4.56,5.07,8.19,8.49,8.63l0,0c3.42,0.44,6.59-2.9,7.09-7.46l4.21-38.79
		c0.5-4.56-1.88-8.61-5.3-9.05l0,0C1951.51,790.42,1948.34,793.76,1947.84,798.32z"/>
	<path class="st4" d="M1948.99,775.99l-0.71,19.47c-0.17,4.58,2.43,8.35,5.8,8.43l0,0c3.37,0.08,6.24-3.57,6.41-8.15l0.71-19.47
		c0.17-4.58-2.43-8.35-5.8-8.43l0,0C1952.02,767.76,1949.16,771.41,1948.99,775.99z"/>
	<path class="st4" d="M1975.97,788.29l-5.43,11.89l0,0c-1.49,3.81,0.05,7.95,3.36,9.05l0,0c3.17,1.05,6.74-1.12,7.96-4.83
		l5.13-15.51c0.79-2.4-0.29-4.88-2.38-5.42l0,0C1981.28,782.59,1977.64,784.62,1975.97,788.29z"/>
	<path class="st4" d="M1964.22,819.88l-15.56,33.06c-1.3,3.26,2.44,7.65,5.7,8.95h0c3.26,1.3,6.95-0.3,8.25-3.56l13.42-33.76
		c1.3-3.26-0.3-6.95-3.56-8.25l0,0C1969.21,815.03,1965.51,816.62,1964.22,819.88z"/>
	<path class="st4" d="M1970.24,801.19l-5.67,18.37c-1.03,3.33,0.84,6.85,4.16,7.88v0c3.33,1.03,6.85-0.84,7.88-4.16l5.67-18.37
		c1.03-3.33-0.84-6.85-4.16-7.88h0C1974.79,796,1971.26,797.86,1970.24,801.19z"/>
	<polygon class="st4" points="1912.23,830.34 1912.2,857.9 1930.08,852.22 1925.35,829.21 	"/>
	<path class="st4" d="M1914.79,934.52c9.55-5.73,21.42-13.46,22.78-30.43c1.08-13.56-1.39-23.29-6.93-30.1
		c-5.72-7.02-17.22-11.99-28.14-7.01c-2.11,0.96-4.24,1.28-5.58,0.49c-0.02-0.01-0.04-0.02-0.06-0.04
		c-7.03-4.21-2.99-8.15-18.67-19.39c-15.68-11.24-23.57-2.17-25.02,0.47c-1.45,2.64,7.27,6.03,11.02,8.31
		c3.75,2.28,8.92,13.68,13.06,18.39c2.42,2.76,5.81,10.72,8.22,16.86c2.26,5.77,4.98,11.35,8.12,16.69
		c4.59,7.81,6.74,15.73,12.46,21.18C1907.86,931.68,1912.77,933.25,1914.79,934.52z"/>
	<g>
		
			<rect x="1494.2" y="538.48" transform="matrix(0.9814 0.1922 -0.1922 0.9814 183.6948 -309.8718)" class="st5" width="389.52" height="506.73"/>
		<polyline class="st6" points="1599.78,588.84 1693.58,607.21 1699.2,607.29 1703.8,609.21 1750.82,618.42 		"/>
		<polyline class="st6" points="1664.83,642 1747.55,658.2 1756.06,660.89 1764.53,661.53 1840.51,676.41 		"/>
		<line class="st6" x1="1592.15" y1="627.77" x2="1648.08" y2="638.72"/>
		<polyline class="st7" points="1584.53,666.7 1687.24,686.81 1693.15,688.99 1698.56,689.03 1778.67,704.72 1783.65,704.68 
			1787.81,706.51 1832.88,715.34 		"/>
		<polyline class="st8" points="1576.9,705.63 1630.42,716.11 1635.4,716.07 1640.87,718.16 1688.76,727.53 1699.02,730.56 
			1705.74,730.86 1764.51,742.37 		"/>
		<polyline class="st7" points="1569.28,744.56 1638.04,758.02 1646.94,758.75 1654.14,761.18 1715.09,773.12 1721,775.29 
			1724.67,774.99 1817.63,793.2 		"/>
		<line class="st9" x1="1561.66" y1="783.48" x2="1749.26" y2="820.23"/>
		<line class="st9" x1="1685.04" y1="848.07" x2="1802.39" y2="871.06"/>
		<polyline class="st9" points="1554.03,822.41 1572.29,825.99 1579.49,828.42 1587.96,829.06 1620.17,835.37 1624.28,835.16 
			1628.01,836.9 1665.89,844.32 		"/>
		<polyline class="st10" points="1546.41,861.34 1595.57,870.97 1600.17,872.89 1604.71,872.76 1721.82,895.7 1728.6,898.05 
			1734.01,898.09 1794.76,909.99 		"/>
		<polyline class="st7" points="1614.3,915.06 1650.64,922.18 1656.49,922.31 1660.21,924.06 1707.23,933.27 1711.34,933.05 
			1714.2,934.63 1749.9,941.62 1753.19,943.29 1756.43,942.9 1787.14,948.92 		"/>
		<polyline class="st7" points="1538.78,900.27 1562.18,905.16 1572.47,905.85 1594.71,911.23 		"/>
	</g>
	<g>
		<path class="st11" d="M1964.5,944.5c29.42,94.17,58.17,298.92,53.41,361.28c-3.95,51.73-35.29,48.57-36.62,48.86
			c-15.57,3.3-39.35-14.92-41.75-33.69l-28.91-375.26L1964.5,944.5z"/>
	</g>
	<path class="st4" d="M1902.2,811.91l17.87,50.29c1.66,3.62,9.07,0.64,12.69-1.03l0,0c3.62-1.66,5.21-5.95,3.55-9.57l-20.99-45.72
		c-1.66-3.62-5.95-5.21-9.57-3.55l0,0C1902.12,804.01,1900.53,808.29,1902.2,811.91z"/>
	<path class="st4" d="M1874.24,801.68l31.22,12.48c3.46,1.38,7.39-0.3,8.78-3.76l0,0c1.38-3.46-0.3-7.39-3.76-8.78l-31.22-12.48
		c-3.46-1.38-7.39,0.3-8.78,3.76l0,0C1869.09,796.37,1870.78,800.3,1874.24,801.68z"/>
	<path class="st4" d="M1866.64,808.94l12.72-7.73l0,0c3.85-2.62,5.16-7.39,2.87-10.41l0,0c-2.19-2.89-6.85-3.04-10.4-0.34
		l-14.82,11.26c-2.29,1.74-2.93,4.69-1.39,6.46l0,0C1858.08,811,1862.72,811.33,1866.64,808.94z"/>
	<polygon class="st32" points="2225.35,1026.67 1485.38,1607.05 2312.22,1607.05 2340.87,1132.53 	"/>
	<g>
		<line class="st33" x1="2482.1" y1="1544.12" x2="2605.1" y2="1124.76"/>
		<line class="st33" x1="2612.74" y1="1113.08" x2="2404.21" y2="958.41"/>
		<circle class="st34" cx="2605.1" cy="1112.47" r="22.92"/>
		<circle class="st24" cx="2605.1" cy="1113.33" r="9.49"/>
		<g>
			<path class="st34" d="M2372.42,1051.58l-48.1-50.57l62.46-59.41c13.96-13.28,36.05-12.73,49.33,1.23l0,0
				c13.28,13.96,12.73,36.05-1.24,49.33L2372.42,1051.58z"/>
			
				<ellipse transform="matrix(0.4853 -0.8743 0.8743 0.4853 387.9011 2605.533)" class="st24" cx="2407.07" cy="973.29" rx="9.49" ry="9.49"/>
			<g>
				<polygon class="st24" points="2360.2,1186.56 2190.55,1017.75 2331.07,990.51 2386.74,1045.9 				"/>
			</g>
		</g>
		<path class="st24" d="M2585.07,1570.05h-250.43v-15.88c0-14.52,11.77-26.29,26.29-26.29h197.85c14.52,0,26.29,11.77,26.29,26.29
			V1570.05z"/>
	</g>
	<g>
		
			<rect x="1772.93" y="1631.18" transform="matrix(0.9739 -0.2271 0.2271 0.9739 -323.9176 493.0071)" class="st35" width="414.81" height="45.72"/>
		
			<rect x="1772.93" y="1643.72" transform="matrix(0.9739 -0.2271 0.2271 0.9739 -323.9188 493.0095)" class="st36" width="414.81" height="20.64"/>
		<path class="st5" d="M1773.14,1678.92l-0.47,0.46l-17.96,17.66l4.25,18.23l23.92,7.9l0.62,0.21l0.02,0.01l-0.01-0.04
			c1.02-1.87,1.29-4.83,0.57-7.95c-0.73-3.11-2.27-5.63-4-6.87c1-1.88,1.27-4.82,0.55-7.92c-0.73-3.11-2.27-5.63-4-6.87
			c1-1.88,1.27-4.82,0.55-7.93c-0.73-3.13-2.29-5.65-4.03-6.88l-0.01-0.03L1773.14,1678.92z"/>
		<path class="st35" d="M1754.71,1697.05l0-0.02l-11.61,11.42c-0.46,0.45-0.21,1.5,0.4,1.7l15.14,5l0,0l2.07,0.69
			c-0.03-0.19-0.07-0.39-0.12-0.58c-0.46-1.99-1.45-3.61-2.56-4.4c0.64-1.2,0.81-3.09,0.35-5.08c-0.47-1.99-1.45-3.61-2.56-4.4
			c0.64-1.2,0.81-3.09,0.35-5.08c-0.05-0.2-0.1-0.39-0.15-0.57L1754.71,1697.05z"/>
		<path class="st24" d="M2223.96,1615.39l-8.04-34.46c-0.53-2.26-2.79-3.67-5.06-3.14l-39.05,9.11c-2.26,0.53-3.67,2.79-3.14,5.06
			l8.04,34.46c0.53,2.26,2.79,3.67,5.06,3.14l39.05-9.11C2223.08,1619.92,2224.49,1617.65,2223.96,1615.39z"/>
		
			<rect x="2151.34" y="1584.23" transform="matrix(0.9739 -0.2271 0.2271 0.9739 -308.4707 536.1644)" class="st37" width="48.52" height="48.54"/>
		
			<rect x="2163.57" y="1586.54" transform="matrix(0.9739 -0.2271 0.2271 0.9739 -309.2557 533.9821)" class="st38" width="4.26" height="48.54"/>
		
			<rect x="2183.38" y="1581.92" transform="matrix(0.9739 -0.2271 0.2271 0.9739 -307.6869 538.3546)" class="st38" width="4.26" height="48.54"/>
		
			<ellipse transform="matrix(0.9739 -0.2271 0.2271 0.9739 -314.035 533.7407)" class="st38" cx="2162.08" cy="1631.35" rx="1.48" ry="1.48"/>
		
			<ellipse transform="matrix(0.9739 -0.2271 0.2271 0.9739 -305.8554 530.7447)" class="st38" cx="2153.49" cy="1594.51" rx="1.48" ry="1.48"/>
		
			<ellipse transform="matrix(0.9739 -0.2271 0.2271 0.9739 -309.9049 532.2625)" class="st38" cx="2157.73" cy="1612.67" rx="1.48" ry="1.48"/>
		
			<ellipse transform="matrix(0.9739 -0.2271 0.2271 0.9739 -311.2658 541.3383)" class="st38" cx="2196.74" cy="1623.27" rx="1.48" ry="1.48"/>
		
			<ellipse transform="matrix(0.9739 -0.2271 0.2271 0.9739 -303.1221 538.4238)" class="st38" cx="2188.15" cy="1586.42" rx="1.48" ry="1.48"/>
		
			<ellipse transform="matrix(0.9739 -0.2271 0.2271 0.9739 -307.1631 539.9235)" class="st38" cx="2192.38" cy="1604.58" rx="1.48" ry="1.48"/>
	</g>
	<g>
		
			<rect x="2280.28" y="1537.77" transform="matrix(-0.2631 -0.9648 0.9648 -0.2631 1322.1472 4261.8647)" class="st3" width="16.84" height="176.46"/>
		<path class="st20" d="M2386.16,1599.42L2386.16,1599.42c1.96,7.19-2.28,14.61-9.47,16.57l-112.23,30.61l-7.1-26.04l112.23-30.61
			C2376.78,1587.99,2384.2,1592.23,2386.16,1599.42z"/>
		<path class="st3" d="M2004.14,1703.6c15.44,56.61,73.84,89.98,130.45,74.55s89.98-73.84,74.55-130.45
			c-15.44-56.61-73.84-89.98-130.45-74.55C2022.08,1588.59,1988.7,1646.99,2004.14,1703.6z M2199.9,1650.21
			c14.05,51.51-16.32,104.65-67.83,118.69s-104.65-16.32-118.69-67.83c-14.05-51.51,16.32-104.65,67.83-118.69
			S2185.85,1598.71,2199.9,1650.21z"/>
		<path class="st39" d="M2199.9,1650.21c-12.44-45.63-55.57-74.67-101.06-70.94c-5.86,0.48-11.76,1.5-17.64,3.11
			c-51.51,14.05-81.87,67.19-67.83,118.69c11.39,41.76,48.48,69.63,89.56,71.19c9.59,0.37,19.39-0.7,29.13-3.36
			C2183.58,1754.86,2213.95,1701.72,2199.9,1650.21z"/>
		<path class="st40" d="M2188.4,1650.47c-11.39-41.76-48.48-69.63-89.56-71.19c-5.86,0.48-11.76,1.5-17.64,3.11
			c-51.51,14.05-81.87,67.19-67.83,118.69c11.39,41.76,48.48,69.63,89.56,71.19c5.86-0.48,11.76-1.5,17.64-3.11
			C2172.08,1755.11,2202.45,1701.97,2188.4,1650.47z"/>
	</g>
	<g>
		<polygon class="st21" points="2429.44,1658.1 2372.71,1657.46 2373.3,1666.3 		"/>
		<path class="st12" d="M2324.81,1653.88l38.09-2.55c2.98-6.25,8.64-11.06,15.36-12.78l3.06,45.67c-6.89-0.81-13.12-4.52-16.9-10.32
			l-38.09,2.55c-2.27,1.66-5.23,4.38-8.67,5.25l-2.16-32.16C2319.02,1649.95,2322.34,1652.54,2324.81,1653.88z"/>
	</g>
	<g>
		<polygon class="st21" points="1899.95,1620.62 1808.78,1620.62 1780.74,1505.91 1927.99,1505.91 		"/>
		<g>
			<path class="st21" d="M1924.66,1580.02c-2.46,0-4.82-0.56-6.96-1.73c-10.25-5.63-11.21-22.93-2.18-39.39
				c4.13-7.54,9.39-12.98,15.19-15.76c5.82-2.78,11.92-2.73,17.16,0.15c5.25,2.88,8.57,7.99,9.35,14.39
				c0.78,6.38-0.99,13.74-5.13,21.28C1944.95,1571.98,1934,1580.02,1924.66,1580.02z M1939.34,1528.17c-1.81,0-3.69,0.45-5.58,1.36
				c-4.46,2.13-8.62,6.55-12.04,12.78c-3.55,6.48-5.44,13.3-5.3,19.23c0.16,7.04,3,9.64,4.68,10.56c1.68,0.92,5.4,1.92,11.42-1.72
				c5.07-3.07,9.81-8.33,13.37-14.8c3.42-6.23,4.91-12.11,4.31-17.02c-0.51-4.14-2.49-7.27-5.73-9.05
				C1942.86,1528.61,1941.13,1528.17,1939.34,1528.17z"/>
		</g>
		<g>
			<rect x="1829.92" y="1505.78" class="st24" width="2.83" height="51.22"/>
		</g>
		<polygon class="st12" points="1840.88,1549.93 1821.79,1549.93 1814.57,1557.47 1814.57,1588.11 1847.09,1588.11 1847.09,1557.47 
					"/>
	</g>
	<path class="st41" d="M1847.09,1489.28c0,0-55.32-20.26-51.37-66.82c4.28-50.38,101.85-88.64,145.51-27.23
		c52.65,74.06,116.21,43.33,68.12-27.18c0,0,49.47,40.92,44.48,74.27c-6.48,43.34-62.91,63.59-113.58,23.22
		C1892.39,1427.39,1808.84,1442.4,1847.09,1489.28z"/>
	<g>
		<g>
			<path class="st42" d="M1002,1486.96c-1.11,0-2.24-0.23-3.33-0.72c-4.05-1.84-5.85-6.62-4.01-10.67l38.37-84.55l-15.86-15.86
				h-40.55c-4.45,0-8.06-3.61-8.06-8.06c0-4.45,3.61-8.06,8.06-8.06h43.89c2.14,0,4.19,0.85,5.7,2.36l22.17,22.17
				c2.38,2.37,3.03,5.97,1.64,9.03l-40.68,89.64C1008,1485.2,1005.07,1486.96,1002,1486.96z"/>
		</g>
		<g>
			<rect x="959.83" y="1352.91" class="st26" width="40.01" height="28.36"/>
			<polygon class="st26" points="841.66,1410.45 874.44,1352.91 808.88,1352.91 			"/>
			<polygon class="st42" points="905.96,1333 927.61,1297.34 884.32,1297.34 			"/>
			<rect x="848.46" y="1470.24" class="st43" width="115.26" height="45.23"/>
			<path class="st44" d="M967.44,1352.91h-122.7h-9.4l8.97,117.01c0.25,3.21,2.93,5.7,6.15,5.7h111.28c3.22,0,5.9-2.48,6.15-5.7
				l8.97-117.01H967.44z"/>
			<path class="st44" d="M961.96,1510.09H850.22c-3.13,0-5.76,2.34-6.12,5.44l-10.55,89.05h11.2h122.7h11.2l-10.55-89.05
				C967.72,1512.43,965.08,1510.09,961.96,1510.09z"/>
			<path class="st26" d="M967.44,1352.91h-122.7h-9.4l8.97,117.01c0.25,3.21,2.93,5.7,6.15,5.7h111.28c3.22,0,5.9-2.48,6.15-5.7
				l8.97-117.01H967.44z"/>
			<path class="st26" d="M961.96,1510.09H850.22c-3.13,0-5.76,2.34-6.12,5.44l-10.55,89.05h11.2h122.7h11.2l-10.55-89.05
				C967.72,1512.43,965.08,1510.09,961.96,1510.09z"/>
			<polygon class="st45" points="954.82,1352.91 857.35,1352.91 849.88,1352.91 857.35,1475.61 954.82,1475.61 962.29,1352.91 			
				"/>
			<polygon class="st45" points="954.82,1510.09 857.35,1510.09 848.46,1604.58 857.35,1604.58 954.82,1604.58 963.72,1604.58 			
				"/>
			<polygon class="st46" points="928.35,1352.91 883.82,1352.91 880.41,1352.91 883.82,1475.61 928.35,1475.61 931.77,1352.91 			
				"/>
			<polygon class="st46" points="928.35,1510.09 883.82,1510.09 879.76,1604.58 883.82,1604.58 928.35,1604.58 932.42,1604.58 			
				"/>
			<polygon class="st47" points="905.96,1323.41 835.09,1352.91 976.84,1352.91 			"/>
			<polygon class="st48" points="905.96,1323.41 849.88,1352.91 962.05,1352.91 			"/>
			<polygon class="st49" points="905.96,1323.41 879.76,1352.91 932.17,1352.91 			"/>
		</g>
	</g>
	<g>
		<g>
			<g>
				<circle class="st3" cx="1991.22" cy="585.88" r="113.84"/>
			</g>
			<g>
				<circle class="st2" cx="1953.51" cy="584.52" r="7.85"/>
				<circle class="st2" cx="1991.22" cy="584.52" r="7.85"/>
				<circle class="st2" cx="2028.94" cy="584.52" r="7.85"/>
			</g>
			<path class="st3" d="M2021.01,639.76c0,0,3.36,51.63,74.8,65.88c0,0-51.61-21.38-51.44-68.98L2021.01,639.76z"/>
		</g>
	</g>
</g>
</svg>
